<svg width="72" height="72" viewBox="0 0 72 72" fill="none" xmlns="http://www.w3.org/2000/svg">
<rect width="72" height="72" rx="36" fill="#FCFAF4"/>
<path d="M28.6364 17C29.4491 17.8602 29.9846 18.8974 30.2921 20.0176C30.7915 21.8372 30.7596 23.8759 30.5917 25.9551C30.2554 30.1136 29.4176 34.4904 30.3952 37.2065C31.3128 39.7559 32.7842 41.2701 34.4165 42.0146C35.1187 42.335 35.8579 42.5122 36.6057 42.5581C38.3929 37.3426 38.0116 30.6866 35.0709 26.188C38.9644 30.0532 40.8034 35.8897 39.6153 42.0071L38.9083 42.2899C39.1291 42.2243 39.3465 42.1483 39.56 42.0621C42.9245 40.7102 45.6778 36.753 44.5323 30.9511C44.006 28.2854 42.1999 24.5271 39.1775 21.6154C36.5627 19.0966 33.0716 17.191 28.6363 17.0002L28.6364 17ZM51.5025 31.7073C51.4348 32.6769 51.129 33.5927 50.6522 34.4244C49.8185 35.8781 48.5225 37.1295 47.1191 38.3184C44.3124 40.696 41.0752 42.8986 40.0078 45.1473C38.9968 47.2775 38.9703 49.0941 39.5097 50.539C39.7401 51.1573 40.085 51.7272 40.5263 52.2192C44.8511 50.0727 48.718 45.7355 49.6907 41.1583C49.6968 45.938 47.2243 50.6692 42.7154 53.7318C45.5983 54.8974 49.6632 54.1352 52.5168 49.9054C53.8388 47.9457 55.0579 44.5124 54.9979 40.8603C54.9468 37.76 54.0103 34.5112 51.5026 31.7075L51.5025 31.7073ZM17.29 37.5948C16.5264 41.2712 17.347 44.553 18.8602 47.2635C20.6427 50.456 23.4245 52.8229 25.5538 53.862C30.1493 56.1048 34.0502 54.7409 35.9615 52.297C30.5189 51.8883 26.0013 49.0216 23.6062 44.8795C26.7483 48.3595 32.2753 50.1916 37.0989 49.8979C37.2347 49.2524 37.2475 48.5873 37.1368 47.9372C36.878 46.4174 35.9394 44.8562 33.9938 43.5147C31.94 42.0987 28.0314 41.803 24.4064 41.1407C22.5939 40.8098 20.8434 40.3722 19.3914 39.5281C18.5601 39.0449 17.8361 38.4014 17.2902 37.5949L17.29 37.5948Z" fill="#B1673D"/>
</svg>
