<svg width="20" height="20" viewBox="0 0 20 20" fill="none" xmlns="http://www.w3.org/2000/svg">
<mask id="path-1-inside-1_490_30" fill="white">
<path d="M7.79172 7.00169L8.64224 4.02681C8.96094 2.91327 10.5391 2.91327 10.8578 4.02681L11.7074 7.00169C11.7611 7.18987 11.862 7.36125 12.0004 7.49965C12.1388 7.63804 12.3102 7.7389 12.4984 7.79269L15.4732 8.64224C16.5868 8.96094 16.5868 10.5391 15.4732 10.8578L12.4984 11.7074C12.3102 11.7611 12.1388 11.862 12.0004 12.0004C11.862 12.1388 11.7611 12.3102 11.7074 12.4984L10.8578 15.4732C10.5391 16.5868 8.96094 16.5868 8.64224 15.4732L7.79269 12.4984C7.7389 12.3102 7.63804 12.1388 7.49965 12.0004C7.36125 11.862 7.18987 11.7611 7.00169 11.7074L4.02681 10.8578C2.91327 10.5391 2.91327 8.96094 4.02681 8.64224L7.00169 7.79269C7.18987 7.7389 7.36125 7.63804 7.49965 7.49965C7.63804 7.36125 7.7389 7.18987 7.79269 7.00169"/>
</mask>
<path d="M7.79172 7.00169L8.64224 4.02681C8.96094 2.91327 10.5391 2.91327 10.8578 4.02681L11.7074 7.00169C11.7611 7.18987 11.862 7.36125 12.0004 7.49965C12.1388 7.63804 12.3102 7.7389 12.4984 7.79269L15.4732 8.64224C16.5868 8.96094 16.5868 10.5391 15.4732 10.8578L12.4984 11.7074C12.3102 11.7611 12.1388 11.862 12.0004 12.0004C11.862 12.1388 11.7611 12.3102 11.7074 12.4984L10.8578 15.4732C10.5391 16.5868 8.96094 16.5868 8.64224 15.4732L7.79269 12.4984C7.7389 12.3102 7.63804 12.1388 7.49965 12.0004C7.36125 11.862 7.18987 11.7611 7.00169 11.7074L4.02681 10.8578C2.91327 10.5391 2.91327 8.96094 4.02681 8.64224L7.00169 7.79269C7.18987 7.7389 7.36125 7.63804 7.49965 7.49965C7.63804 7.36125 7.7389 7.18987 7.79269 7.00169" fill="#B1673D"/>
<path d="M8.64224 4.02681L7.68084 3.75165L7.68076 3.75192L8.64224 4.02681ZM10.8578 4.02681L11.8194 3.75221L11.8192 3.75165L10.8578 4.02681ZM11.7074 7.00169L10.7458 7.27629L10.7459 7.27651L11.7074 7.00169ZM12.4984 7.79269L12.2235 8.75418L12.2238 8.75424L12.4984 7.79269ZM15.4732 8.64224L15.7484 7.68084L15.7478 7.68068L15.4732 8.64224ZM15.4732 10.8578L15.7478 11.8194L15.7484 11.8192L15.4732 10.8578ZM12.4984 11.7074L12.2238 10.7458L12.2235 10.7459L12.4984 11.7074ZM11.7074 12.4984L10.7459 12.2235L10.7458 12.2238L11.7074 12.4984ZM10.8578 15.4732L11.8192 15.7484L11.8194 15.7478L10.8578 15.4732ZM8.64224 15.4732L7.68068 15.7478L7.68084 15.7484L8.64224 15.4732ZM7.79269 12.4984L8.75424 12.2238L8.75418 12.2235L7.79269 12.4984ZM7.00169 11.7074L7.27651 10.7459L7.27629 10.7458L7.00169 11.7074ZM4.02681 10.8578L3.75165 11.8192L3.75221 11.8194L4.02681 10.8578ZM4.02681 8.64224L3.75221 7.68068L3.75165 7.68084L4.02681 8.64224ZM7.00169 7.79269L7.27629 8.75424L7.27651 8.75418L7.00169 7.79269ZM7.79172 7.00169L8.7532 7.27657L9.60372 4.30169L8.64224 4.02681L7.68076 3.75192L6.83025 6.7268L7.79172 7.00169ZM8.64224 4.02681L9.60364 4.30196C9.62035 4.24359 9.64237 4.22612 9.65365 4.21818C9.67219 4.20512 9.70549 4.19165 9.75002 4.19165C9.79456 4.19165 9.82785 4.20512 9.84639 4.21818C9.85767 4.22612 9.87969 4.24359 9.8964 4.30196L10.8578 4.02681L11.8192 3.75165C11.2239 1.67165 8.27615 1.67165 7.68084 3.75165L8.64224 4.02681ZM10.8578 4.02681L9.89624 4.3014L10.7458 7.27629L11.7074 7.00169L12.6689 6.72709L11.8194 3.75221L10.8578 4.02681ZM11.7074 7.00169L10.7459 7.27651C10.8463 7.62806 11.0347 7.94822 11.2933 8.20675L12.0004 7.49965L12.7075 6.79254C12.6892 6.77429 12.6759 6.75168 12.6688 6.72686L11.7074 7.00169ZM12.0004 7.49965L11.2933 8.20675C11.5518 8.46529 11.872 8.65369 12.2235 8.75418L12.4984 7.79269L12.7732 6.83119C12.7484 6.8241 12.7258 6.81079 12.7075 6.79254L12.0004 7.49965ZM12.4984 7.79269L12.2238 8.75424L15.1986 9.6038L15.4732 8.64224L15.7478 7.68068L12.773 6.83113L12.4984 7.79269ZM15.4732 8.64224L15.1981 9.60364C15.2565 9.62035 15.2739 9.64237 15.2819 9.65365C15.2949 9.67219 15.3084 9.70549 15.3084 9.75002C15.3084 9.79456 15.2949 9.82785 15.2819 9.84639C15.2739 9.85767 15.2565 9.87969 15.1981 9.8964L15.4732 10.8578L15.7484 11.8192C17.8284 11.2239 17.8284 8.27615 15.7484 7.68084L15.4732 8.64224ZM15.4732 10.8578L15.1986 9.89624L12.2238 10.7458L12.4984 11.7074L12.773 12.6689L15.7478 11.8194L15.4732 10.8578ZM12.4984 11.7074L12.2235 10.7459C11.872 10.8463 11.5518 11.0347 11.2933 11.2933L12.0004 12.0004L12.7075 12.7075C12.7258 12.6892 12.7484 12.6759 12.7732 12.6688L12.4984 11.7074ZM12.0004 12.0004L11.2933 11.2933C11.0347 11.5518 10.8463 11.872 10.7459 12.2235L11.7074 12.4984L12.6688 12.7732C12.6759 12.7484 12.6892 12.7258 12.7075 12.7075L12.0004 12.0004ZM11.7074 12.4984L10.7458 12.2238L9.89624 15.1986L10.8578 15.4732L11.8194 15.7478L12.6689 12.773L11.7074 12.4984ZM10.8578 15.4732L9.8964 15.1981C9.87969 15.2565 9.85767 15.2739 9.84639 15.2819C9.82785 15.2949 9.79456 15.3084 9.75002 15.3084C9.70549 15.3084 9.67219 15.2949 9.65365 15.2819C9.64237 15.2739 9.62035 15.2565 9.60364 15.1981L8.64224 15.4732L7.68084 15.7484C8.27615 17.8284 11.2239 17.8284 11.8192 15.7484L10.8578 15.4732ZM8.64224 15.4732L9.6038 15.1986L8.75424 12.2238L7.79269 12.4984L6.83113 12.773L7.68068 15.7478L8.64224 15.4732ZM7.79269 12.4984L8.75418 12.2235C8.65369 11.872 8.46529 11.5518 8.20675 11.2933L7.49965 12.0004L6.79254 12.7075C6.81079 12.7258 6.8241 12.7484 6.83119 12.7732L7.79269 12.4984ZM7.49965 12.0004L8.20675 11.2933C7.94822 11.0347 7.62806 10.8463 7.27651 10.7459L7.00169 11.7074L6.72686 12.6688C6.75168 12.6759 6.77429 12.6892 6.79254 12.7075L7.49965 12.0004ZM7.00169 11.7074L7.27629 10.7458L4.3014 9.89624L4.02681 10.8578L3.75221 11.8194L6.72709 12.6689L7.00169 11.7074ZM4.02681 10.8578L4.30196 9.8964C4.24359 9.87969 4.22612 9.85767 4.21818 9.84639C4.20512 9.82785 4.19165 9.79456 4.19165 9.75002C4.19165 9.70549 4.20512 9.67219 4.21818 9.65365C4.22612 9.64237 4.24359 9.62035 4.30196 9.60364L4.02681 8.64224L3.75165 7.68084C1.67165 8.27615 1.67165 11.2239 3.75165 11.8192L4.02681 10.8578ZM4.02681 8.64224L4.3014 9.6038L7.27629 8.75424L7.00169 7.79269L6.72709 6.83113L3.75221 7.68068L4.02681 8.64224ZM7.00169 7.79269L7.27651 8.75418C7.62806 8.65369 7.94822 8.46529 8.20675 8.20675L7.49965 7.49965L6.79254 6.79254C6.77429 6.81079 6.75168 6.8241 6.72686 6.83119L7.00169 7.79269ZM7.49965 7.49965L8.20675 8.20675C8.46529 7.94822 8.65369 7.62806 8.75418 7.27651L7.79269 7.00169L6.83119 6.72686C6.8241 6.75168 6.81079 6.77429 6.79254 6.79254L7.49965 7.49965Z" fill="#B1673D" mask="url(#path-1-inside-1_490_30)"/>
<path d="M7.7917 7.00167L8.64222 4.02679C8.96092 2.91324 10.5391 2.91324 10.8578 4.02679L11.7073 7.00167C11.7611 7.18985 11.862 7.36123 12.0004 7.49963C12.1388 7.63802 12.3101 7.73887 12.4983 7.79266L15.4732 8.64222C16.5868 8.96092 16.5868 10.5391 15.4732 10.8578L12.4983 11.7073C12.3101 11.7611 12.1388 11.862 12.0004 12.0004C11.862 12.1388 11.7611 12.3101 11.7073 12.4983L10.8578 15.4732C10.5391 16.5868 8.96092 16.5868 8.64222 15.4732L7.79266 12.4983C7.73887 12.3101 7.63802 12.1388 7.49963 12.0004C7.36123 11.862 7.18985 11.7611 7.00167 11.7073L4.02679 10.8578C2.91324 10.5391 2.91324 8.96092 4.02679 8.64222L7.00167 7.79266C7.18985 7.73887 7.36123 7.63802 7.49963 7.49963C7.63802 7.36123 7.73887 7.18985 7.79266 7.00167M2.48319 2.34207L2.84413 0.895432C2.89213 0.701523 3.16859 0.701523 3.21659 0.895432L3.57849 2.34207C3.58681 2.37586 3.60416 2.40674 3.62868 2.43143C3.65319 2.45611 3.68396 2.47367 3.71768 2.48223L5.16528 2.84413C5.35919 2.89213 5.35919 3.16763 5.16528 3.21659L3.71768 3.57849C3.68408 3.58697 3.65339 3.60438 3.62889 3.62889C3.60438 3.65339 3.58697 3.68408 3.57849 3.71768L3.21659 5.16528C3.16859 5.35919 2.89213 5.35919 2.84413 5.16528L2.48223 3.71768C2.47375 3.68408 2.45633 3.65339 2.43183 3.62889C2.40732 3.60438 2.37664 3.58697 2.34303 3.57849L0.895432 3.21659C0.701523 3.16859 0.701523 2.89213 0.895432 2.84413L2.34303 2.48223C2.37676 2.47367 2.40752 2.45611 2.43204 2.43143C2.45655 2.40674 2.47486 2.37586 2.48319 2.34207ZM15.9225 15.7823L16.2834 14.3347C16.3314 14.1408 16.6069 14.1408 16.6559 14.3347L17.0178 15.7823C17.0262 15.8159 17.0437 15.8466 17.0682 15.8711C17.0927 15.8956 17.1234 15.913 17.157 15.9215L18.6046 16.2834C18.7985 16.3314 18.7985 16.6069 18.6046 16.6559L17.157 17.0178C17.1234 17.0262 17.0927 17.0437 17.0682 17.0682C17.0437 17.0927 17.0262 17.1234 17.0178 17.157L16.6559 18.6046C16.6079 18.7985 16.3324 18.7985 16.2834 18.6046L15.9215 17.157C15.913 17.1234 15.8956 17.0927 15.8711 17.0682C15.8466 17.0437 15.8159 17.0262 15.7823 17.0178L14.3347 16.6559C14.1408 16.6079 14.1408 16.3314 14.3347 16.2834L15.7823 15.9215C15.8159 15.913 15.8466 15.8956 15.8711 15.8711C15.8956 15.8466 15.914 15.8159 15.9225 15.7823Z" fill="#B1673D"/>
<path d="M7.7917 7.00167L8.64222 4.02679C8.96092 2.91324 10.5391 2.91324 10.8578 4.02679L11.7073 7.00167C11.7611 7.18985 11.862 7.36123 12.0004 7.49963C12.1388 7.63802 12.3101 7.73887 12.4983 7.79266L15.4732 8.64222C16.5868 8.96092 16.5868 10.5391 15.4732 10.8578L12.4983 11.7073C12.3101 11.7611 12.1388 11.862 12.0004 12.0004C11.862 12.1388 11.7611 12.3101 11.7073 12.4983L10.8578 15.4732C10.5391 16.5868 8.96092 16.5868 8.64222 15.4732L7.79266 12.4983C7.73887 12.3101 7.63802 12.1388 7.49963 12.0004C7.36123 11.862 7.18985 11.7611 7.00167 11.7073L4.02679 10.8578C2.91324 10.5391 2.91324 8.96092 4.02679 8.64222L7.00167 7.79266C7.18985 7.73887 7.36123 7.63802 7.49963 7.49963C7.63802 7.36123 7.73887 7.18985 7.79266 7.00167M2.48319 2.34207L2.84413 0.895432C2.89213 0.701523 3.16859 0.701523 3.21659 0.895432L3.57849 2.34207C3.58681 2.37586 3.60416 2.40674 3.62868 2.43143C3.65319 2.45611 3.68396 2.47367 3.71768 2.48223L5.16528 2.84413C5.35919 2.89213 5.35919 3.16763 5.16528 3.21659L3.71768 3.57849C3.68408 3.58697 3.65339 3.60438 3.62889 3.62889C3.60438 3.65339 3.58697 3.68408 3.57849 3.71768L3.21659 5.16528C3.16859 5.35919 2.89213 5.35919 2.84413 5.16528L2.48223 3.71768C2.47375 3.68408 2.45633 3.65339 2.43183 3.62889C2.40732 3.60438 2.37664 3.58697 2.34303 3.57849L0.895432 3.21659C0.701523 3.16859 0.701523 2.89213 0.895432 2.84413L2.34303 2.48223C2.37676 2.47367 2.40752 2.45611 2.43204 2.43143C2.45655 2.40674 2.47486 2.37586 2.48319 2.34207ZM15.9225 15.7823L16.2834 14.3347C16.3314 14.1408 16.6069 14.1408 16.6559 14.3347L17.0178 15.7823C17.0262 15.8159 17.0437 15.8466 17.0682 15.8711C17.0927 15.8956 17.1234 15.913 17.157 15.9215L18.6046 16.2834C18.7985 16.3314 18.7985 16.6069 18.6046 16.6559L17.157 17.0178C17.1234 17.0262 17.0927 17.0437 17.0682 17.0682C17.0437 17.0927 17.0262 17.1234 17.0178 17.157L16.6559 18.6046C16.6079 18.7985 16.3324 18.7985 16.2834 18.6046L15.9215 17.157C15.913 17.1234 15.8956 17.0927 15.8711 17.0682C15.8466 17.0437 15.8159 17.0262 15.7823 17.0178L14.3347 16.6559C14.1408 16.6079 14.1408 16.3314 14.3347 16.2834L15.7823 15.9215C15.8159 15.913 15.8466 15.8956 15.8711 15.8711C15.8956 15.8466 15.914 15.8159 15.9225 15.7823Z" stroke="#B1673D" stroke-width="1.5" stroke-miterlimit="10" stroke-linecap="round" stroke-linejoin="round"/>
</svg>
