<svg width="220" height="221" viewBox="0 0 220 221" fill="none" xmlns="http://www.w3.org/2000/svg">
<g filter="url(#filter0_d_988_662)">
<g clip-path="url(#clip0_988_662)">
<path d="M177.106 4H42C21.0132 4 4 21.0132 4 42V178.949C4 199.936 21.0132 216.949 42 216.949H177.106C198.093 216.949 215.106 199.936 215.106 178.949V42C215.106 21.0132 198.093 4 177.106 4Z" fill="white"/>
<path d="M172.203 47.4143C173.545 48.6974 174.314 50.4563 174.334 52.313C174.355 54.1691 173.623 55.9709 172.31 57.3132C170.997 58.6554 169.211 59.4256 167.355 59.4455C165.498 59.4659 163.723 58.7343 162.411 57.4205C158.288 53.2831 153.66 49.6386 148.655 46.5939C141.15 42.0232 132.796 38.8138 124.12 37.1839C109.663 34.4372 94.3335 36.1821 80.7738 42.1805C67.1962 48.1336 55.4528 58.3155 47.603 71.0232C39.7123 83.7035 35.7547 98.8522 36.4707 113.881C37.1371 128.911 42.4772 143.751 51.6319 155.83C60.7457 167.937 73.634 177.224 88.1183 182.045C102.585 186.913 118.581 187.288 133.359 183.044C142.227 180.517 150.65 176.365 158.084 170.843C163.041 167.164 167.56 162.88 171.509 158.112C171.948 157.582 172.584 157.247 173.273 157.178C173.962 157.109 174.647 157.312 175.182 157.745C175.718 158.177 176.059 158.806 176.136 159.494C176.213 160.182 176.018 160.873 175.591 161.413C171.491 166.6 166.759 171.298 161.527 175.369C153.683 181.48 144.709 186.169 135.172 189.124C119.284 194.082 101.841 194.105 85.8425 189.126C69.8291 184.2 55.3354 174.292 44.8868 161.053C34.3959 147.85 28.002 131.377 26.8619 114.44C25.6663 97.5094 29.7332 80.1952 38.4247 65.4869C47.0669 50.7516 60.2956 38.6932 75.88 31.4295C91.4388 24.1154 109.281 21.6335 126.351 24.4718C136.591 26.1536 146.541 29.7082 155.56 34.921C161.574 38.3931 167.176 42.5967 172.203 47.4143Z" fill="#513C2B"/>
<path d="M151 98V148" stroke="#B1673D" stroke-width="8"/>
<path d="M76.9014 147.626V72.9238L115.851 113.471" stroke="#513C2B" stroke-width="8"/>
<path d="M141.05 71.7774L150.893 81.9009L113.967 117.184L118.789 122.389L155.839 86.9879L165.657 97.0861L174.052 64.6543L141.05 71.7774Z" fill="#B1673D"/>
</g>
</g>
<defs>
<filter id="filter0_d_988_662" x="0" y="0" width="220" height="221" filterUnits="userSpaceOnUse" color-interpolation-filters="sRGB">
<feFlood flood-opacity="0" result="BackgroundImageFix"/>
<feColorMatrix in="SourceAlpha" type="matrix" values="0 0 0 0 0 0 0 0 0 0 0 0 0 0 0 0 0 0 127 0" result="hardAlpha"/>
<feOffset/>
<feGaussianBlur stdDeviation="2"/>
<feComposite in2="hardAlpha" operator="out"/>
<feColorMatrix type="matrix" values="0 0 0 0 0 0 0 0 0 0 0 0 0 0 0 0 0 0 0.25 0"/>
<feBlend mode="normal" in2="BackgroundImageFix" result="effect1_dropShadow_988_662"/>
<feBlend mode="normal" in="SourceGraphic" in2="effect1_dropShadow_988_662" result="shape"/>
</filter>
<clipPath id="clip0_988_662">
<rect width="212" height="213" fill="white" transform="translate(4 4)"/>
</clipPath>
</defs>
</svg>
